<svg width="200" height="80" viewBox="0 0 200 80" fill="none" xmlns="http://www.w3.org/2000/svg">
  <!-- Background -->
  <rect width="200" height="80" fill="#F36B21"/>
  
  <!-- Fingerprint Mark -->
  <g transform="translate(100, 25)">
    <!-- Main curved lines forming the fingerprint pattern -->
    <path d="M-15, -8 Q-10, -12 -5, -8 Q0, -4 5, -8 Q10, -12 15, -8" stroke="#1E293B" stroke-width="3" fill="none" stroke-linecap="round"/>
    <path d="M-15, -4 Q-10, -8 -5, -4 Q0, 0 5, -4 Q10, -8 15, -4" stroke="#1E293B" stroke-width="3" fill="none" stroke-linecap="round"/>
    <path d="M-15, 0 Q-10, -4 -5, 0 Q0, 4 5, 0 Q10, -4 15, 0" stroke="#1E293B" stroke-width="3" fill="none" stroke-linecap="round"/>
    <path d="M-15, 4 Q-10, 0 -5, 4 Q0, 8 5, 4 Q10, 0 15, 4" stroke="#1E293B" stroke-width="3" fill="none" stroke-linecap="round"/>
    <path d="M-15, 8 Q-10, 4 -5, 8 Q0, 12 5, 8 Q10, 4 15, 8" stroke="#1E293B" stroke-width="3" fill="none" stroke-linecap="round"/>
    
    <!-- Shorter curved segments for dynamic effect -->
    <path d="M-12, -6 Q-8, -10 -4, -6" stroke="#1E293B" stroke-width="2.5" fill="none" stroke-linecap="round"/>
    <path d="M12, 6 Q8, 10 4, 6" stroke="#1E293B" stroke-width="2.5" fill="none" stroke-linecap="round"/>
    <path d="M-8, 2 Q-4, -2 0, 2" stroke="#1E293B" stroke-width="2" fill="none" stroke-linecap="round"/>
  </g>
  
  <!-- Text -->
  <text x="100" y="65" text-anchor="middle" font-family="Inter, sans-serif" font-size="16" font-weight="500" fill="#FFFFFF" letter-spacing="0.5px">orantis global</text>
</svg>
